<svg width="44" height="45" viewBox="0 0 44 45" fill="none" xmlns="http://www.w3.org/2000/svg">
<path d="M16.725 14.118H27.2761C30.965 14.118 33.2589 16.7206 33.2589 20.4058V27.6801C33.2589 31.3655 30.965 33.9681 27.2743 33.9681H16.725C13.0379 33.9681 10.7422 31.3655 10.7422 27.6801V20.4058C10.7422 16.7206 13.0486 14.118 16.725 14.118Z" stroke="#3B82F6" stroke-width="1.5" stroke-linecap="round" stroke-linejoin="round"/>
<path d="M19.5186 26.9728C21.172 27.6953 22.8257 27.6953 24.4792 26.9728" stroke="#3B82F6" stroke-width="1.5" stroke-linecap="round" stroke-linejoin="round"/>
<path d="M26.0461 20.5315V20.5132" stroke="#3B82F6" stroke-width="1.5" stroke-linecap="round" stroke-linejoin="round"/>
<path d="M17.9539 20.5315V20.5132" stroke="#3B82F6" stroke-width="1.5" stroke-linecap="round" stroke-linejoin="round"/>
<path d="M10.7425 20.5132H10.3108C8.45212 20.5132 6.94482 22.0187 6.94482 23.8774C6.94482 25.7362 8.45212 27.2433 10.3108 27.2433H10.7425" stroke="#3B82F6" stroke-width="1.5" stroke-linecap="round" stroke-linejoin="round"/>
<path d="M33.2578 20.5132H33.6914C35.55 20.5132 37.0556 22.0187 37.0556 23.8774C37.0556 25.7362 35.55 27.2433 33.6914 27.2433H33.2578" stroke="#3B82F6" stroke-width="1.5" stroke-linecap="round" stroke-linejoin="round"/>
<path fill-rule="evenodd" clip-rule="evenodd" d="M24.264 8.11017C24.264 6.85975 23.2509 5.84656 22.0004 5.84656C20.7501 5.84656 19.7368 6.85975 19.7368 8.11017C19.7368 9.36062 20.7501 10.374 22.0006 10.374C23.2509 10.374 24.264 9.36062 24.264 8.11017Z" stroke="#3B82F6" stroke-width="1.5" stroke-linecap="round" stroke-linejoin="round"/>
<path d="M22 14.1149V10.3726" stroke="#3B82F6" stroke-width="1.5" stroke-linecap="round" stroke-linejoin="round"/>
<path d="M15.8733 38.8466H28.1297" stroke="#3B82F6" stroke-width="1.5" stroke-linecap="round" stroke-linejoin="round"/>
</svg>
